<svg xmlns="http://www.w3.org/2000/svg" viewBox="0 0 117 45"><defs><style>.s1{fill:none;}.s2{fill:#fff;}.s3{fill:#f90;}.s4{fill:#c93;}.s5{fill:#306;}.s6{fill:#7d7dff;}</style></defs><path class="s1" d="M28.1582,41.6007a3.0411,3.0411,0,0,1-3.042,3.05H6.5482a3.047,3.047,0,0,1-3.042-3.05V3.4A3.053,3.053,0,0,1,6.5482.35h18.568a3.0471,3.0471,0,0,1,3.042,3.05Z"/><path class="s1" d="M25.1162.35H6.5482A3.053,3.053,0,0,0,3.5062,3.4v38.201a3.047,3.047,0,0,0,3.042,3.05h18.568a3.0411,3.0411,0,0,0,3.042-3.05V3.4A3.0471,3.0471,0,0,0,25.1162.35ZM26.307,36.4152a.4186.4186,0,0,1-.4373.4011H5.8039a.4213.4213,0,0,1-.4465-.4011V3.1759a.4213.4213,0,0,1,.4465-.4011h5.3583a1.1338,1.1338,0,0,1,.93.4943L13.153,4.8359a1.65,1.65,0,0,0,1.3861.7369h2.3722a1.6917,1.6917,0,0,0,1.2652-.569l1.6093-1.8373a1.1048,1.1048,0,0,1,.8465-.3917H25.87a.4186.4186,0,0,1,.4373.4011Z"/><path class="s2" d="M25.1162.35H6.5482A3.053,3.053,0,0,0,3.5062,3.4v38.201a3.0469,3.0469,0,0,0,3.042,3.05h18.568a3.041,3.041,0,0,0,3.042-3.05V3.4A3.0471,3.0471,0,0,0,25.1162.35Z"/><path d="M25.8694,2.5416H20.6321a1.34,1.34,0,0,0-1.0211.4708L18.003,4.8481a1.4663,1.4663,0,0,1-1.092.4914H14.5391a1.42,1.42,0,0,1-1.1938-.6344l-1.062-1.5692a1.3716,1.3716,0,0,0-1.121-.5943H5.8041a.6513.6513,0,0,0-.6795.6343v33.24a.651.651,0,0,0,.68.6339H25.8694a.6535.6535,0,0,0,.67-.6339V3.1759A.6539.6539,0,0,0,25.8694,2.5416Zm-5.0166.755a.9242.9242,0,0,1,.0583-.2887h1.77a.9242.9242,0,0,1,.0583.2887V5.3691a.9435.9435,0,1,1-1.8869,0ZM14.5391,5.8058h1.5681a.9209.9209,0,0,1-1.6525-.01h0C14.4831,5.7967,14.51,5.8058,14.5391,5.8058Zm-6.71-2.5092a.9242.9242,0,0,1,.0583-.2887h1.77a.9214.9214,0,0,1,.0583.2887V5.3691a.9435.9435,0,1,1-1.8869,0ZM26.0747,36.4154a.1893.1893,0,0,1-.2053.1676H5.8041a.1935.1935,0,0,1-.2143-.1676V3.1759a.1935.1935,0,0,1,.2143-.168H7.1606a1.6351,1.6351,0,0,0-.0292.2887V5.3691a1.6412,1.6412,0,1,0,3.2823,0V3.2966a1.6446,1.6446,0,0,0-.0292-.2887h.7778a.8427.8427,0,0,1,.1036.013V6.6647a.3489.3489,0,1,0,.6977,0V3.4939l.9947,1.47a1.8532,1.8532,0,0,0,.7076.6291,1.6314,1.6314,0,0,0,3.1935.2125h.0516a1.9134,1.9134,0,0,0,.8667-.2157V6.6647a.3489.3489,0,1,0,.6977,0V5.0156l1.4872-1.698a.86.86,0,0,1,.2062-.1569c-.0038.0455-.0137.0893-.0137.1359V5.3691a1.6412,1.6412,0,1,0,3.2823,0V3.2966a1.6446,1.6446,0,0,0-.0291-.2887H24.29V6.6647a.3489.3489,0,1,0,.6977,0V3.0079h.8822a.19.19,0,0,1,.2053.168Z"/><path d="M7.48,30.5636a.3494.3494,0,0,0-.3489.35v4.6632a.3489.3489,0,1,0,.6977,0V30.9134A.3494.3494,0,0,0,7.48,30.5636Z"/><path d="M10.3229,30.5636a1.6445,1.6445,0,0,0-1.6407,1.6449V34.281a1.6407,1.6407,0,1,0,3.2814,0V32.2085A1.6446,1.6446,0,0,0,10.3229,30.5636Zm.943,3.7174a.943.943,0,1,1-1.886,0V32.2085a.943.943,0,1,1,1.886,0Z"/><path d="M13.9921,30.5636a.3494.3494,0,0,0-.3488.35v4.6632a.3489.3489,0,1,0,.6977,0V30.9134A.35.35,0,0,0,13.9921,30.5636Z"/><path d="M16.8347,30.5636a1.6445,1.6445,0,0,0-1.6407,1.6449V34.281a1.6407,1.6407,0,1,0,3.2814,0V32.2085A1.6445,1.6445,0,0,0,16.8347,30.5636Zm.943,3.7174a.943.943,0,1,1-1.886,0V32.2085a.943.943,0,1,1,1.886,0Z"/><path d="M20.504,30.5636a.35.35,0,0,0-.3489.35v4.6632a.3489.3489,0,1,0,.6977,0V30.9134A.3494.3494,0,0,0,20.504,30.5636Z"/><path d="M23.3465,30.5636a1.6445,1.6445,0,0,0-1.6406,1.6449V34.281a1.6407,1.6407,0,1,0,3.2813,0V32.2085A1.6445,1.6445,0,0,0,23.3465,30.5636Zm.943,3.7174a.943.943,0,1,1-1.8859,0V32.2085a.943.943,0,1,1,1.8859,0Z"/><path d="M7.48,21.9367a.3494.3494,0,0,0,.3488-.35V16.9237a.3489.3489,0,1,0-.6977,0V21.587A.3494.3494,0,0,0,7.48,21.9367Z"/><path d="M10.3229,16.574a1.6444,1.6444,0,0,0-1.6407,1.6449v2.0725a1.6407,1.6407,0,1,0,3.2814,0V18.2189A1.6445,1.6445,0,0,0,10.3229,16.574Zm.943,3.7174a.943.943,0,1,1-1.886,0V18.2189a.943.943,0,1,1,1.886,0Z"/><path d="M13.9921,21.9367a.3494.3494,0,0,0,.3489-.35V16.9237a.3489.3489,0,1,0-.6977,0V21.587A.3494.3494,0,0,0,13.9921,21.9367Z"/><path d="M16.8347,16.574a1.6445,1.6445,0,0,0-1.6407,1.6449v2.0725a1.6407,1.6407,0,1,0,3.2814,0V18.2189A1.6444,1.6444,0,0,0,16.8347,16.574Zm.943,3.7174a.943.943,0,1,1-1.886,0V18.2189a.943.943,0,1,1,1.886,0Z"/><path d="M20.504,21.9367a.3494.3494,0,0,0,.3488-.35V16.9237a.3489.3489,0,1,0-.6977,0V21.587A.3494.3494,0,0,0,20.504,21.9367Z"/><path d="M23.3465,16.574a1.6444,1.6444,0,0,0-1.6406,1.6449v2.0725a1.6407,1.6407,0,1,0,3.2813,0V18.2189A1.6444,1.6444,0,0,0,23.3465,16.574Zm.943,3.7174a.943.943,0,1,1-1.8859,0V18.2189a.943.943,0,1,1,1.8859,0Z"/><path d="M18.1265,9.1128a.3494.3494,0,0,0-.3488.35v4.6632a.3489.3489,0,1,0,.6977,0V9.4626A.35.35,0,0,0,18.1265,9.1128Z"/><path d="M15.284,14.4755A1.6455,1.6455,0,0,0,16.9255,12.83V10.7577a1.6411,1.6411,0,1,0-3.2822,0V12.83A1.6447,1.6447,0,0,0,15.284,14.4755Zm-.943-3.7178a.9434.9434,0,1,1,1.8868,0V12.83a.9434.9434,0,1,1-1.8868,0Z"/><path d="M18.1265,24.0351a.3494.3494,0,0,0-.3488.35v4.6632a.3489.3489,0,1,0,.6977,0V24.3849A.35.35,0,0,0,18.1265,24.0351Z"/><path d="M15.284,29.3978a1.6455,1.6455,0,0,0,1.6415-1.6453V25.68a1.6411,1.6411,0,1,0-3.2822,0v2.0725A1.6447,1.6447,0,0,0,15.284,29.3978ZM14.341,25.68a.9434.9434,0,1,1,1.8868,0v2.0725a.9434.9434,0,1,1-1.8868,0Z"/><path d="M11.6147,24.0351a.3494.3494,0,0,0-.3488.35v4.6632a.3489.3489,0,1,0,.6977,0V24.3849A.35.35,0,0,0,11.6147,24.0351Z"/><path d="M8.7721,29.3978a1.6456,1.6456,0,0,0,1.6416-1.6453V25.68a1.6412,1.6412,0,1,0-3.2823,0v2.0725A1.6448,1.6448,0,0,0,8.7721,29.3978ZM7.8291,25.68a.9435.9435,0,1,1,1.8869,0v2.0725a.9435.9435,0,1,1-1.8869,0Z"/><path d="M24.6384,24.0351a.35.35,0,0,0-.3489.35v4.6632a.3489.3489,0,1,0,.6977,0V24.3849A.3494.3494,0,0,0,24.6384,24.0351Z"/><path d="M21.7958,29.3978a1.6455,1.6455,0,0,0,1.6416-1.6453V25.68a1.6412,1.6412,0,1,0-3.2823,0v2.0725A1.6448,1.6448,0,0,0,21.7958,29.3978Zm-.943-3.7178a.9435.9435,0,1,1,1.8869,0v2.0725a.9435.9435,0,1,1-1.8869,0Z"/><path d="M37.6,17.9816a3.2033,3.2033,0,0,0,1.6506-.3333,1.1627,1.1627,0,0,0,.5378-1.0666,1.4888,1.4888,0,0,0-.5278-1.2,8.06,8.06,0,0,0-1.7388-1q-.5859-.2677-1.1228-.5447a3.8785,3.8785,0,0,1-.9285-.6557,2.8389,2.8389,0,0,1-.625-.9117,3.2533,3.2533,0,0,1-.2344-1.3107,3.1174,3.1174,0,0,1,.9966-2.434,3.8987,3.8987,0,0,1,2.7154-.9,6.731,6.731,0,0,1,.8594.0555q.4293.0561.8013.1335t.6541.1666q.2833.0888.44.1558L40.7455,9.913a4.27,4.27,0,0,0-.9176-.3662,5.2544,5.2544,0,0,0-1.5044-.189,2.5113,2.5113,0,0,0-1.3291.3448,1.1688,1.1688,0,0,0-.566,1.0774,1.6278,1.6278,0,0,0,.1272.6667,1.497,1.497,0,0,0,.3907.5228,3.1367,3.1367,0,0,0,.6541.4336q.391.1993.9375.4216.7222.3116,1.29.6121a4.0051,4.0051,0,0,1,.9666.7,2.7014,2.7014,0,0,1,.615.9672,3.928,3.928,0,0,1,.2154,1.389,2.897,2.897,0,0,1-1.0457,2.4227,4.7218,4.7218,0,0,1-2.9788.8224,6.89,6.89,0,0,1-2.1095-.2559,10.1126,10.1126,0,0,1-1.0356-.3889l.3316-1.7779q.3133.1339.9965.4A5.1063,5.1063,0,0,0,37.6,17.9816Z"/><path d="M45.414,19.4707H43.598V7.9133h1.816Z"/><path d="M51.2364,19.693a3.2143,3.2143,0,0,1-2.3838-.8225,3.5322,3.5322,0,0,1-.7032-2.4227V2.5789l1.817-.3557V16.1145a3.8032,3.8032,0,0,0,.0781.8443,1.2,1.2,0,0,0,.2544.5337,1.0692,1.0692,0,0,0,.4687.3006,4.3625,4.3625,0,0,0,.7222.1666Z"/><path d="M52.6036,13.7146a8.29,8.29,0,0,1,.3907-2.6786,5.7678,5.7678,0,0,1,1.0356-1.9,4.2247,4.2247,0,0,1,1.4844-1.1335,4.1505,4.1505,0,0,1,1.7188-.3779A3.6976,3.6976,0,0,1,60.3792,9.08a7.37,7.37,0,0,1,1.0937,4.4341v.3443a3.6459,3.6459,0,0,1-.02.3889H54.4987a4.5675,4.5675,0,0,0,.9184,2.7342,3.1191,3.1191,0,0,0,2.5.9335,5.8644,5.8644,0,0,0,1.6116-.1894,5.3436,5.3436,0,0,0,.9866-.3662l.2544,1.7333a4.9633,4.9633,0,0,1-1.1628.4226,7.3328,7.3328,0,0,1-1.8851.2222,5.35,5.35,0,0,1-2.2957-.4554,4.3321,4.3321,0,0,1-1.5916-1.256,5.3488,5.3488,0,0,1-.9285-1.9008A9.0729,9.0729,0,0,1,52.6036,13.7146Zm6.9743-1.1339a3.8124,3.8124,0,0,0-.615-2.3007,2.0247,2.0247,0,0,0-1.7488-.9A2.1606,2.1606,0,0,0,56.11,9.658a2.6792,2.6792,0,0,0-.81.7222,3.463,3.463,0,0,0-.5178,1.0228,5.592,5.592,0,0,0-.2444,1.1777Z"/><path d="M63.7387,8.2467q.6254-.1776,1.6606-.378a12.66,12.66,0,0,1,2.3829-.2,4.6,4.6,0,0,1,2.0123.3889,3.2287,3.2287,0,0,1,1.28,1.0888,4.5142,4.5142,0,0,1,.6741,1.6782,11.0554,11.0554,0,0,1,.1953,2.1558v6.49H70.127V13.425A11.2145,11.2145,0,0,0,70,11.6025a3.3374,3.3374,0,0,0-.42-1.2223,1.7135,1.7135,0,0,0-.7813-.6776,3.0615,3.0615,0,0,0-1.2119-.2113q-.293,0-.605.0223c-.209.015-.407.0332-.596.0555s-.3588.0483-.5078.0779-.2571.0519-.3225.0665v9.7572H63.7387Z"/><path d="M75.3815,7.9133h3.8492V9.647H75.3815v5.3345a7.2741,7.2741,0,0,0,.1172,1.4336,2.2922,2.2922,0,0,0,.3525.8889,1.2752,1.2752,0,0,0,.5859.4554,2.3016,2.3016,0,0,0,.82.1329,3.4394,3.4394,0,0,0,1.3182-.21c.3325-.1412.5632-.2414.694-.3006l.3516,1.7114a6.2639,6.2639,0,0,1-.9575.3889,4.8254,4.8254,0,0,1-1.5626.2331,4.2181,4.2181,0,0,1-1.71-.3,2.5415,2.5415,0,0,1-1.0838-.9,3.8689,3.8689,0,0,1-.5769-1.4782,11.0434,11.0434,0,0,1-.1653-2.0338V4.6905l1.816-.3556Z"/><path class="s3" d="M85.7321,17.96a2.3428,2.3428,0,0,1-.5044,1.4993,1.7988,1.7988,0,0,1-2.7474,0,2.48,2.48,0,0,1,0-2.9985,1.7988,1.7988,0,0,1,2.7474,0A2.3447,2.3447,0,0,1,85.7321,17.96Z"/><path d="M91.64,19.693a3.2157,3.2157,0,0,1-2.3838-.8225,3.5369,3.5369,0,0,1-.7023-2.4227V2.5789l1.816-.3557V16.1145a3.8025,3.8025,0,0,0,.0782.8443,1.2081,1.2081,0,0,0,.2543.5337,1.07,1.07,0,0,0,.4688.3006,4.3536,4.3536,0,0,0,.7231.1666Z"/><path d="M95.39,19.4707H93.5735V7.9133H95.39Z"/><path d="M98.1648,8.2467q.6255-.1776,1.6607-.378a12.6629,12.6629,0,0,1,2.3838-.2,4.6032,4.6032,0,0,1,2.0123.3889,3.226,3.226,0,0,1,1.2791,1.0888,4.5008,4.5008,0,0,1,.6741,1.6782,11.0554,11.0554,0,0,1,.1953,2.1558v6.49h-1.8169V13.425a11.2145,11.2145,0,0,0-.1272-1.8225,3.3374,3.3374,0,0,0-.42-1.2223,1.7135,1.7135,0,0,0-.7813-.6776,3.06,3.06,0,0,0-1.211-.2113c-.1953,0-.3979.0077-.6059.0223s-.407.0332-.596.0555-.3579.0483-.5078.0779-.2571.0519-.3225.0665v9.7572h-1.817Z"/><path d="M111.7809,13.1144a12.8978,12.8978,0,0,1,1.2409,1.2669q.6542.7554,1.2892,1.633t1.2009,1.7788q.567.8989.9576,1.6776H114.34q-.41-.7773-.9475-1.5893T112.27,16.3258a17.4244,17.4244,0,0,0-1.1919-1.3671,11.2312,11.2312,0,0,0-1.1528-1.0447v5.5567H108.108V2.5789l1.8169-.3557V12.7583q.4688-.5328,1.0356-1.1777t1.1138-1.3115q.5464-.6667,1.0348-1.2778t.84-1.078h2.1294q-.45.5555-.9766,1.2223T114.0084,10.48q-.5668.6776-1.1428,1.3561T111.7809,13.1144Z"/><path d="M34.7569,29.0458h1.2836V39.477H34.7569Z"/><path d="M44.2567,39.477q-.2916-.556-.6687-1.25-.3774-.6912-.813-1.4372-.4375-.7446-.9067-1.5128t-.933-1.4828q-.4632-.7144-.8993-1.347t-.8068-1.1139V39.477H37.9719V29.0458h1.0193q.6215.7527,1.3291,1.7542t1.4027,2.062q.6936,1.06,1.31,2.0848.6146,1.0231,1.0383,1.8206V29.0458h1.2564V39.477Z"/><path d="M49.39,38.4387q2.01,0,2.01-1.5656a1.74,1.74,0,0,0-.178-.8206,1.8952,1.8952,0,0,0-.4834-.5866,3.2389,3.2389,0,0,0-.694-.429q-.391-.18-.8276-.3615a7.9481,7.9481,0,0,1-.9521-.4436,3.3272,3.3272,0,0,1-.78-.5875,2.4941,2.4941,0,0,1-.5232-.8051A2.9815,2.9815,0,0,1,46.77,31.71a2.7836,2.7836,0,0,1,.82-2.1367,3.181,3.181,0,0,1,2.263-.7677,5.2808,5.2808,0,0,1,1.5144.2031,3.244,3.244,0,0,1,.9984.4435l-.41,1.1895a3.4039,3.4039,0,0,0-.8267-.3834,3.9325,3.9325,0,0,0-1.2764-.1886,2.5145,2.5145,0,0,0-.6886.09,1.6381,1.6381,0,0,0-.5551.2714,1.2743,1.2743,0,0,0-.377.459,1.4485,1.4485,0,0,0-.139.6549,1.5448,1.5448,0,0,0,.1454.7068,1.5793,1.5793,0,0,0,.41.5045,3.4128,3.4128,0,0,0,.615.399q.3516.18.774.3615.5955.2706,1.092.542a3.5542,3.5542,0,0,1,.8594.6466,2.6088,2.6088,0,0,1,.5623.8953,3.5261,3.5261,0,0,1,.199,1.2569,2.5953,2.5953,0,0,1-.88,2.1075,3.7521,3.7521,0,0,1-2.48.7378A5.6686,5.6686,0,0,1,48.39,39.62a6.651,6.651,0,0,1-.8131-.1958,4.39,4.39,0,0,1-.6159-.24q-.2576-.1284-.4034-.2186l.3843-1.204a5.4268,5.4268,0,0,0,.9257.4363A4.2112,4.2112,0,0,0,49.39,38.4387Z"/><path d="M60.0785,29.0458V30.31H57.195v9.167H55.9113V30.31H53.027V29.0458Z"/><path d="M66.2708,39.477q-.2247-.6775-.4233-1.3325t-.4106-1.3315H61.2834l-.834,2.664H59.1131q.5288-1.6558.992-3.063t.9067-2.6722q.4428-1.2638.8794-2.4154t.913-2.2806h1.1773q.477,1.13.913,2.2806t.88,2.4154q.4429,1.2651.9058,2.6722t.9929,3.063Zm-1.2037-3.8681q-.4237-1.31-.84-2.5365T63.36,30.7171q-.4632,1.1285-.8794,2.3553t-.8276,2.5365Z"/><path d="M74.8567,39.477q-.2916-.556-.6677-1.25-.3774-.6912-.814-1.4372t-.9066-1.5128Q72,34.51,71.5363,33.7946t-.9-1.347q-.436-.6326-.8067-1.1139V39.477H68.5729V29.0458h1.0184q.6213.7527,1.33,1.7542t1.4017,2.062q.695,1.06,1.31,2.0848t1.0384,1.8206V29.0458h1.2573V39.477Z"/><path d="M83.985,29.0458V30.31H81.1015v9.167H79.8178V30.31H76.9335V29.0458Z"/><path d="M87.5713,35.3466a5.6021,5.6021,0,0,1,.2652-1.8143,3.8949,3.8949,0,0,1,.7014-1.2869,2.86,2.86,0,0,1,1.0047-.7678,2.8162,2.8162,0,0,1,1.1647-.2559,2.5016,2.5016,0,0,1,2.1294.9863,4.9865,4.9865,0,0,1,.7413,3.0029v.2332c0,.0956-.0054.183-.0127.2632h-4.71a3.0867,3.0867,0,0,0,.6223,1.8516,2.11,2.11,0,0,0,1.6934.6321,4.0063,4.0063,0,0,0,1.09-.1275,3.5983,3.5983,0,0,0,.6687-.2487l.1726,1.174a3.3756,3.3756,0,0,1-.7867.286,4.9674,4.9674,0,0,1-1.2773.15,3.6361,3.6361,0,0,1-1.5553-.3079,2.94,2.94,0,0,1-1.0775-.8506,3.6368,3.6368,0,0,1-.6286-1.287A6.16,6.16,0,0,1,87.5713,35.3466Zm4.724-.7678a2.5876,2.5876,0,0,0-.4179-1.5583,1.3711,1.3711,0,0,0-1.1828-.6094,1.46,1.46,0,0,0-.7486.1886,1.81,1.81,0,0,0-.5487.4891,2.3182,2.3182,0,0,0-.3507.6922,3.8169,3.8169,0,0,0-.1653.7978Z"/><path d="M97.2155,38.2065q2.0113,0,2.0113-1.5657a1.74,1.74,0,0,0-.1789-.8206,1.88,1.88,0,0,0-.4833-.5865,3.2342,3.2342,0,0,0-.6941-.429c-.2607-.12-.536-.2414-.8267-.3616A7.9612,7.9612,0,0,1,96.0908,34a3.3433,3.3433,0,0,1-.78-.5875,2.4768,2.4768,0,0,1-.5224-.8051,2.9644,2.9644,0,0,1-.1917-1.1294,2.783,2.783,0,0,1,.8194-2.1367,3.1808,3.1808,0,0,1,2.263-.7678,5.2808,5.2808,0,0,1,1.5144.2031,3.2484,3.2484,0,0,1,.9993.4436l-.4106,1.1894a3.4077,3.4077,0,0,0-.8267-.3834,3.9288,3.9288,0,0,0-1.2764-.1885,2.5146,2.5146,0,0,0-.6886.09,1.6465,1.6465,0,0,0-.5551.2715,1.2836,1.2836,0,0,0-.377.459,1.45,1.45,0,0,0-.139.6548,1.5442,1.5442,0,0,0,.1454.7068,1.571,1.571,0,0,0,.4106.5046,3.3811,3.3811,0,0,0,.615.3989q.35.18.774.3616.5955.27,1.0911.5419a3.5578,3.5578,0,0,1,.86.6467,2.6231,2.6231,0,0,1,.5624.8953,3.5492,3.5492,0,0,1,.198,1.2568,2.5975,2.5975,0,0,1-.8794,2.1076,3.7552,3.7552,0,0,1-2.481.7377,5.6585,5.6585,0,0,1-.9984-.0828,6.6714,6.6714,0,0,1-.814-.1959,4.3322,4.3322,0,0,1-.615-.24q-.2589-.1284-.4034-.2186l.3834-1.2041a5.4229,5.4229,0,0,0,.9257.4363A4.2178,4.2178,0,0,0,97.2155,38.2065Z"/><path d="M101.78,28.8136h1.2837V39.2448H101.78Z"/><path d="M109.11,37.7993q-.1335-.3606-.3507-.918-.2193-.5561-.47-1.2041-.2521-.6462-.536-1.3315t-.536-1.2952q-.2521-.6093-.47-1.0911t-.3507-.7377q-.1458,1.7773-.238,3.8462T106,39.2448h-1.2564q.0519-1.3552.119-2.7324.0654-1.3772.1518-2.7087t.1853-2.5966q.0995-1.2651.218-2.3935h1.1247q.357.6625.7676,1.5656t.82,1.889q.41.9862.794,1.9718t.7,1.7988q.3175-.8129.7013-1.7988t.794-1.9718q.41-.9851.82-1.889t.7676-1.5656h1.1238q.45,5.0425.675,10.4312h-1.2564q-.0667-2.1067-.159-4.1769t-.238-3.8462q-.1322.2568-.3507.7377t-.47,1.0911q-.252.6106-.536,1.2952t-.536,1.3315q-.2506.6475-.47,1.2041t-.3507.918Z"/><rect x="34.2063" y="23.6276" width="82.7937" height="1.9491"/><path d="M25.1163,45H6.5482a3.4,3.4,0,0,1-3.3913-3.4V3.4A3.4,3.4,0,0,1,6.5482,0H25.1163a3.3988,3.3988,0,0,1,3.39,3.4v38.201A3.3988,3.3988,0,0,1,25.1163,45ZM6.5482.7A2.7,2.7,0,0,0,3.8546,3.4v38.201a2.7,2.7,0,0,0,2.6936,2.7H25.1163a2.7,2.7,0,0,0,2.6927-2.7V3.4A2.7,2.7,0,0,0,25.1163.7Z"/><path d="M16.0662,43.1384a2.2151,2.2151,0,1,1,2.2093-2.2151A2.2147,2.2147,0,0,1,16.0662,43.1384Zm0-4.1969a1.9819,1.9819,0,1,0,1.9768,1.9818A1.9814,1.9814,0,0,0,16.0662,38.9415Z"/><path d="M15.8336,4.2925A1.0492,1.0492,0,1,1,16.88,3.2433,1.0494,1.0494,0,0,1,15.8336,4.2925Zm0-1.8653a.8161.8161,0,1,0,.814.8161A.8161.8161,0,0,0,15.8336,2.4272Z"/><path class="s4" d="M31.2437,9.3113c-.6736-.6851-1.9156-.6277-2.8055-.7222a51.2908,51.2908,0,0,0-6.3994.1159A5.9686,5.9686,0,0,0,19.1419,9.74a5.6644,5.6644,0,0,1-1.9138.8891,6.4693,6.4693,0,0,1-2.5012,0A5.2858,5.2858,0,0,1,12.813,9.74,5.9686,5.9686,0,0,0,9.9161,8.705a51.2908,51.2908,0,0,0-6.3994-.1159c-.89.0945-2.1319.0371-2.8055.7222a2.1417,2.1417,0,0,0-.5482,1.327v.9243a.9324.9324,0,0,0,.9312.9337.9324.9324,0,0,1,.9313.9337v.9336c0,3.61,2.9187,6.0828,6.519,6.0828s6.519-2.4732,6.519-6.0828a.9141.9141,0,1,1,1.8279,0c0,3.61,2.9187,6.0828,6.519,6.0828s6.519-2.4732,6.519-6.0828V13.43a.9325.9325,0,0,1,.9313-.9337.9325.9325,0,0,0,.9313-.9337v-.9243A2.1419,2.1419,0,0,0,31.2437,9.3113Z"/><path d="M23.41,20.6092c-3.8092,0-6.6818-2.685-6.6818-6.2457a.7515.7515,0,1,0-1.5026,0c0,3.5607-2.8725,6.2457-6.6817,6.2457s-6.6808-2.685-6.6808-6.2457V13.43a.771.771,0,0,0-.7695-.7706A1.0964,1.0964,0,0,1,0,11.5624v-.924A2.28,2.28,0,0,1,.596,9.1966a3.6122,3.6122,0,0,1,2.3892-.7281c.179-.0123.3525-.0246.5142-.0415a50.6932,50.6932,0,0,1,6.441.1171,6.1381,6.1381,0,0,1,2.9679,1.0638,5.1322,5.1322,0,0,0,1.8569.8625,6.2885,6.2885,0,0,0,2.42.0009,5.5337,5.5337,0,0,0,1.8614-.8634,6.1385,6.1385,0,0,1,2.9671-1.0638,50.7132,50.7132,0,0,1,6.4419-.1171c.1617.0169.3352.0292.5142.0415a3.6166,3.6166,0,0,1,2.39.7281,2.2663,2.2663,0,0,1,.5942,1.4295v.9363a1.0964,1.0964,0,0,1-1.0938,1.097.7707.7707,0,0,0-.7686.7706v.9335C30.0919,17.9242,27.2194,20.6092,23.41,20.6092Zm-7.4358-7.3414a1.1006,1.1006,0,0,1,1.0793,1.0957c0,3.3745,2.7326,5.92,6.3565,5.92s6.3565-2.5452,6.3565-5.92V13.43a1.0963,1.0963,0,0,1,1.0938-1.0966.7711.7711,0,0,0,.7685-.771v-.924a1.9826,1.9826,0,0,0-.5005-1.2122h-.0009a3.394,3.394,0,0,0-2.18-.6321c-.1836-.0128-.3607-.0251-.526-.0428a51.4246,51.4246,0,0,0-6.3584.1152A5.8709,5.8709,0,0,0,19.2376,9.872a5.8445,5.8445,0,0,1-1.9668.9144,6.5509,6.5509,0,0,1-2.5819.0009,5.4343,5.4343,0,0,1-1.9713-.9153A5.87,5.87,0,0,0,9.8913,8.8665a51.3962,51.3962,0,0,0-6.3574-.1152c-.1653.0177-.3425.03-.5269.0428a3.3939,3.3939,0,0,0-2.1794.6316,1.9509,1.9509,0,0,0-.5024,1.2255v.9112a.7711.7711,0,0,0,.7686.771A1.0965,1.0965,0,0,1,2.1885,13.43v.9335c0,3.3745,2.7326,5.92,6.3556,5.92s6.3565-2.5452,6.3565-5.92A1.1,1.1,0,0,1,15.9744,13.2678Z"/><path class="s5" d="M2.9482,14.49a7.1612,7.1612,0,0,0,.8549,2.5753,4.81,4.81,0,0,0,2.2132,1.8135,6.2763,6.2763,0,0,0,6.3767-.8112c1.5514-1.322,2.7385-4.2143,1.44-6.065C12.751,10.46,10.5462,9.9693,8.7811,9.8845c-.9918-.0476-1.9984-.0164-2.9955-.0444a3.2224,3.2224,0,0,0-2.3038.6542,3.0607,3.0607,0,0,0-.7229,2.647C2.8114,13.5663,2.8689,14.026,2.9482,14.49Z"/><path d="M8.5768,19.51a6.7283,6.7283,0,0,1-2.6055-.5232,4.954,4.954,0,0,1-2.2666-1.8585A7.1131,7.1131,0,0,1,2.8335,14.51h0c-.08-.4709-.139-.94-.19-1.3539a3.1485,3.1485,0,0,1,.7595-2.7478A3.2159,3.2159,0,0,1,5.79,9.7235c.4243.0119.8513.0132,1.2773.0141.5651.0014,1.1492.0032,1.72.0306,1.4.0674,3.9281.438,5.1418,2.1676,1.4064,2.0047.0291,4.951-1.46,6.2211A6.0084,6.0084,0,0,1,8.5768,19.51ZM3.0624,14.4705a6.9159,6.9159,0,0,0,.8385,2.5329,4.7132,4.7132,0,0,0,2.1613,1.7683,6.1506,6.1506,0,0,0,6.2556-.7924c1.4545-1.24,2.6982-4.088,1.42-5.91-1.1556-1.6481-3.6048-2.0033-4.9621-2.0684-.5659-.0273-1.1473-.0291-1.71-.03-.4279-.0009-.8567-.0023-1.2836-.0141a3.0309,3.0309,0,0,0-2.2212.623,2.9228,2.9228,0,0,0-.6868,2.547c.0508.4116.109.878.188,1.3438Z"/><path class="s5" d="M29.0067,14.49a7.1592,7.1592,0,0,1-.8549,2.5753,4.81,4.81,0,0,1-2.2132,1.8135,6.2761,6.2761,0,0,1-6.3766-.8112c-1.5515-1.322-2.7386-4.2143-1.44-6.065,1.0822-1.5426,3.2871-2.0336,5.0521-2.1184.9919-.0476,1.9985-.0164,2.9956-.0444a3.2223,3.2223,0,0,1,2.3037.6542,3.0608,3.0608,0,0,1,.723,2.647C29.1435,13.5663,29.086,14.026,29.0067,14.49Z"/><path d="M23.3784,19.51a6.0082,6.0082,0,0,1-3.8919-1.353c-1.49-1.27-2.8662-4.2155-1.46-6.2211,1.2137-1.73,3.742-2.1,5.1419-2.1676.57-.0274,1.1547-.0292,1.72-.0306.4261-.0009.8531-.0022,1.2773-.0141a3.25,3.25,0,0,1,2.3866.6845,3.2177,3.2177,0,0,1,.7594,2.7474c-.0517.4144-.11.8839-.1907,1.3548h0a7.0888,7.0888,0,0,1-.8712,2.618,4.9375,4.9375,0,0,1-2.2658,1.8585A6.7242,6.7242,0,0,1,23.3784,19.51Zm2.977-9.5559q-.09,0-.1826.0027c-.427.0118-.8558.0132-1.2836.0141-.5624.0014-1.1438.0032-1.71.03-1.3572.0651-3.8064.42-4.962,2.0684-1.2782,1.822-.0345,4.67,1.42,5.91a6.15,6.15,0,0,0,6.2557.7924,4.7069,4.7069,0,0,0,2.16-1.7683,6.8739,6.8739,0,0,0,.8385-2.5329v0c.08-.465.1381-.9318.189-1.3434A2.9254,2.9254,0,0,0,28.394,10.58,2.8949,2.8949,0,0,0,26.3554,9.954Z"/><path class="s2" d="M9.2809,17.7175c-.1072,0-.2135-.005-.3207-.0155a.415.415,0,0,1,.08-.8261,2.78,2.78,0,0,0,2.193-.8224,3.2787,3.2787,0,0,0,1.1011-2.461.414.414,0,0,1,.3707-.4535.4073.4073,0,0,1,.4524.3725,3.9657,3.9657,0,0,1-1.3464,3.1367A3.6414,3.6414,0,0,1,9.2809,17.7175Z"/><path class="s2" d="M24.2269,17.7175c-.1072,0-.2135-.005-.3207-.0155a.415.415,0,0,1,.08-.8261,2.7793,2.7793,0,0,0,2.1931-.8224,3.2777,3.2777,0,0,0,1.1-2.4614.4144.4144,0,1,1,.8249-.08,3.9727,3.9727,0,0,1-1.3472,3.1363A3.6417,3.6417,0,0,1,24.2269,17.7175Z"/><path class="s6" d="M44.4965,5.824a1.0923,1.0923,0,0,1-.83-.3666,1.3918,1.3918,0,0,1-.3416-.9891,1.3918,1.3918,0,0,1,.3416-.9891,1.1225,1.1225,0,0,1,1.6606,0,1.3958,1.3958,0,0,1,.3416.9891,1.3958,1.3958,0,0,1-.3416.9891A1.095,1.095,0,0,1,44.4965,5.824Z"/><path class="s6" d="M94.4729,5.824a1.0923,1.0923,0,0,1-.83-.3666A1.3927,1.3927,0,0,1,93.3,4.4683a1.3927,1.3927,0,0,1,.3425-.9891,1.1216,1.1216,0,0,1,1.66,0,1.3927,1.3927,0,0,1,.3425.9891,1.3927,1.3927,0,0,1-.3425.9891A1.0931,1.0931,0,0,1,94.4729,5.824Z"/></svg>